# xmcd
#
# Track frame offsets: 
#        150
#        14839
#        29649
#        53799
#        62533
#        83688
#        98899
#        116126
#        133832
#        146993
#        156465
#        173818
#        185227
#        195805
#        212135
#
# Disc length: 3078 seconds
#
# Revision: 0
# Processed by: cddbd v1.5.2PL0 Copyright (c) Steve Scherf et al.
# Submitted via: ExactAudioCopyFreeDBPlugin 1.0
#
DISCID=e30c040f
DTITLE=Various Artist - Faith, Hope and Country - Old Time Religion - D
DTITLE=isc 2
DYEAR=2016
DGENRE=Country
TTITLE0=Randy Travis - Shall We Gather At The River?
TTITLE1=Crystal Gayle - Give Me That Old Time Religion
TTITLE2=The Judds - Love Can Build A Bridge
TTITLE3=Jimmie Rodgers - Joshua Fit The Battle Of Jericho
TTITLE4=Gary Morris - The Wind Beneath My Wings
TTITLE5=Confederate Railroad - Jesus And Mama
TTITLE6=LeAnn Rimes - On The Side Of Angels
TTITLE7=Randy Travis - Open The Eyes Of My Heart
TTITLE8=Kenny Rogers - Sweet Little Jesus Boy
TTITLE9=Larry Gatlin and The Gatlin Brothers - Love Lifted Me
TTITLE10=Jimmie Rodgers - Scarlet Ribbons (For Her Hair)
TTITLE11=Mickey Gilley - When The Saints Go Marching In
TTITLE12=Wanda Jackson - Let Go... Let Jesus
TTITLE13=Debby Boone - You Light Up my Life
TTITLE14=Hank Williams - The Old Country Church
EXTD=
EXTT0=
EXTT1=
EXTT2=
EXTT3=
EXTT4=
EXTT5=
EXTT6=
EXTT7=
EXTT8=
EXTT9=
EXTT10=
EXTT11=
EXTT12=
EXTT13=
EXTT14=
PLAYORDER=
